<?xml version="1.0" encoding="UTF-8" standalone="no"?>
<!DOCTYPE svg PUBLIC "-//W3C//DTD SVG 1.1//EN" "http://www.w3.org/Graphics/SVG/1.1/DTD/svg11.dtd">
<svg width="100%" height="100%" viewBox="0 0 1969 512" version="1.1" xmlns="http://www.w3.org/2000/svg" xmlns:xlink="http://www.w3.org/1999/xlink" xml:space="preserve" xmlns:serif="http://www.serif.com/" style="fill-rule:evenodd;clip-rule:evenodd;stroke-linejoin:round;stroke-miterlimit:2;">
    <g id="Logo-with-Text" serif:id="Logo with Text" transform="matrix(3.84563,0,0,1,0,0)">
        <rect x="0" y="0" width="512" height="512" style="fill:none;"/>
        <clipPath id="_clip1">
            <rect x="0" y="0" width="512" height="512"/>
        </clipPath>
        <g clip-path="url(#_clip1)">
            <g transform="matrix(0.260036,0,0,1,0,0)">
                <path d="M497.257,399.7C505.714,398.2 512,391.8 512,384L512,16C512,7.2 503.771,0 493.714,0L91.429,0C40.914,0 0,35.8 0,80L0,432C0,476.2 40.914,512 91.429,512L493.714,512C503.771,512 512,504.8 512,496L512,480C512,472.2 505.6,465.7 497.257,464.3C492.458,451.3 492.458,412.7 497.257,399.7ZM450.286,400C447.2,417.3 447.2,446.7 450.286,464L91.429,464C71.2,464 54.857,449.7 54.857,432C54.857,414.4 71.315,400 91.429,400L450.286,400ZM367.99,119.175L309.306,119.175L309.306,60.491C309.306,49.69 300.546,40.93 289.744,40.93L250.622,40.93C239.82,40.93 231.06,49.69 231.06,60.491L231.06,119.175L172.376,119.175C161.575,119.175 152.815,127.935 152.815,138.737L152.815,177.859C152.815,188.661 161.575,197.421 172.376,197.421L231.06,197.421L231.06,334.35C231.06,345.152 239.82,353.912 250.622,353.912L289.744,353.912C300.546,353.912 309.306,345.152 309.306,334.35L309.306,197.421L367.99,197.421C378.791,197.421 387.551,188.661 387.551,177.859L387.551,138.737C387.551,127.935 378.791,119.175 367.99,119.175Z" style="fill:rgb(104,118,245);"/>
            </g>
            <g transform="matrix(0.284358,0,0,1.09353,-61.9023,-19.6245)">
                <text x="714.465px" y="360.194px" style="font-family:'Montserrat-Medium', 'Montserrat';font-weight:500;font-size:288px;fill:rgb(104,118,245);">Bible AP<tspan x="1959.2px " y="360.194px ">I</tspan></text>
            </g>
        </g>
    </g>
</svg>
