<?xml version="1.0" encoding="UTF-8" standalone="no"?>
<!DOCTYPE svg PUBLIC "-//W3C//DTD SVG 1.1//EN" "http://www.w3.org/Graphics/SVG/1.1/DTD/svg11.dtd">
<svg width="100%" height="100%" viewBox="0 0 390 604" version="1.1" xmlns="http://www.w3.org/2000/svg" xmlns:xlink="http://www.w3.org/1999/xlink" xml:space="preserve" xmlns:serif="http://www.serif.com/" style="fill-rule:evenodd;clip-rule:evenodd;stroke-linejoin:round;stroke-miterlimit:1.41421;">
    <g transform="matrix(1.53415,0,0,1.81903,-20.2933,-236.618)">
        <rect x="13.228" y="130.079" width="254.213" height="332.045" style="fill:rgb(227,242,253);"/>
    </g>
    <g transform="matrix(0.548177,0,0,0.548177,-17.3592,279.388)">
        <path d="M420.717,217.486C475.952,217.486 520.717,172.72 520.717,117.486C520.717,62.251 475.952,17.486 420.717,17.486C365.483,17.486 320.718,62.251 320.718,117.486C320.718,172.72 365.483,217.486 420.717,217.486ZM490.717,242.485L477.671,242.485C460.327,250.454 441.03,254.985 420.717,254.985C400.405,254.985 381.187,250.454 363.764,242.485L350.718,242.485C292.749,242.485 245.718,289.517 245.718,347.486L245.718,379.985C245.718,400.688 262.515,417.485 283.218,417.485L558.217,417.485C578.92,417.485 595.717,400.688 595.717,379.985L595.717,347.486C595.717,289.517 548.686,242.485 490.717,242.485Z" style="fill:rgb(144,202,249);fill-rule:nonzero;"/>
    </g>
    <g transform="matrix(0.997644,-0.0686001,0.0686001,0.997644,-211.027,14.4672)">
        <path d="M395.404,157.337L360.248,157.337L360.248,122.181C360.248,117.867 356.75,114.368 352.436,114.368L344.623,114.368C340.309,114.368 336.811,117.867 336.811,122.181L336.811,157.337L301.655,157.337C297.341,157.337 293.842,160.836 293.842,165.15L293.842,172.962C293.842,177.276 297.341,180.775 301.655,180.775L336.811,180.775L336.811,215.931C336.811,220.245 340.309,223.743 344.623,223.743L352.436,223.743C356.75,223.743 360.248,220.245 360.248,215.931L360.248,180.775L395.404,180.775C399.718,180.775 403.217,177.276 403.217,172.962L403.217,165.15C403.217,160.836 399.718,157.337 395.404,157.337Z" style="fill:rgb(76,175,80);fill-rule:nonzero;"/>
    </g>
    <g transform="matrix(0.290805,-0.956782,0.956782,0.290805,-218.418,540.649)">
        <path d="M377.691,182.026C377.691,166.159 364.913,153.38 349.045,153.381C333.225,153.381 320.4,166.206 320.4,182.026C320.4,185.163 320.906,188.181 321.837,191.005L295.502,217.34C294.77,218.073 294.358,219.067 294.358,220.103L294.358,232.807C294.358,234.965 296.107,236.714 298.264,236.714L316.493,236.714C318.651,236.714 320.4,234.965 320.4,232.807L320.4,226.297L326.91,226.297C329.067,226.297 330.816,224.548 330.816,222.391L330.816,215.88L336.875,215.88C337.843,215.88 339.151,215.293 339.794,214.569L343.703,210.173C345.434,210.499 347.219,210.672 349.045,210.672C364.866,210.672 377.691,197.847 377.691,182.026ZM349.045,174.214C349.045,169.899 352.543,166.401 356.858,166.401C361.173,166.401 364.67,169.899 364.67,174.214C364.67,178.529 361.173,182.026 356.858,182.026C352.543,182.026 349.045,178.529 349.045,174.214Z" style="fill:rgb(178,223,219);fill-rule:nonzero;"/>
    </g>
    <g transform="matrix(0.998364,-0.0571784,0.0571784,0.998364,-79.6841,119.473)">
        <path d="M411.962,111.783L377.476,77.297C376.213,76.034 373.738,75.009 371.951,75.009L338.729,75.009C334.414,75.009 330.917,78.507 330.917,82.822L330.917,116.044C330.917,117.83 331.942,120.305 333.205,121.568L367.691,156.054C370.742,159.105 375.688,159.105 378.739,156.054L411.962,122.832C415.012,119.781 415.012,114.834 411.962,111.783ZM349.146,101.051C344.831,101.051 341.333,97.553 341.333,93.238C341.333,88.924 344.831,85.426 349.146,85.426C353.461,85.426 356.958,88.924 356.958,93.238C356.958,97.553 353.461,101.051 349.146,101.051ZM432.795,122.832C435.846,119.781 435.846,114.834 432.795,111.783L398.309,77.297C397.046,76.034 394.571,75.009 392.785,75.009L384.855,75.009L416.795,106.95C419.562,109.716 421.086,113.395 421.086,117.308C421.086,121.22 419.562,124.899 416.795,127.666L388.466,155.996L388.524,156.054C391.575,159.105 396.522,159.105 399.573,156.054L432.795,122.832Z" style="fill:rgb(178,223,219);fill-rule:nonzero;"/>
    </g>
</svg>
