<?xml version="1.0" encoding="UTF-8" standalone="no"?>
<!DOCTYPE svg PUBLIC "-//W3C//DTD SVG 1.1//EN" "http://www.w3.org/Graphics/SVG/1.1/DTD/svg11.dtd">
<svg width="100%" height="100%" viewBox="0 0 112 128" version="1.1" xmlns="http://www.w3.org/2000/svg" xmlns:xlink="http://www.w3.org/1999/xlink" xml:space="preserve" xmlns:serif="http://www.serif.com/" style="fill-rule:evenodd;clip-rule:evenodd;stroke-linejoin:round;stroke-miterlimit:1.41421;">
    <g transform="matrix(1,0,0,1,-8,0)">
        <path d="M114,0C117.325,0 120,2.675 120,6L120,90C120,91.875 119.125,93.575 117.775,94.65C116.725,98.5 116.725,109.475 117.775,113.325C119.125,114.425 120,116.125 120,118L120,122C120,125.325 117.325,128 114,128L32,128C18.75,128 8,117.25 8,104L8,24C8,10.75 18.75,0 32,0L114,0ZM103.35,112C102.875,107.725 102.875,100.275 103.35,96L32,96C27.6,96 24,99.6 24,104C24,108.425 27.575,112 32,112L103.35,112Z" style="fill:rgb(69,90,100);fill-rule:nonzero;"/>
    </g>
    <g transform="matrix(1,0,0,1,-9.49904,28.8207)">
        <path d="M101.564,2.894C104.012,0.446 104.012,-3.512 101.564,-5.947L93.738,-13.772C91.29,-16.207 87.332,-16.207 84.897,-13.772L78.895,-7.77C78.282,-7.158 78.282,-6.168 78.895,-5.556L93.348,8.897C93.96,9.509 94.949,9.509 95.561,8.897L101.564,2.894ZM73.738,-2.614L39.546,31.579L36.785,47.399C36.408,49.535 38.27,51.384 40.405,51.019L56.225,48.246L90.418,14.053C91.03,13.441 91.03,12.452 90.418,11.84L75.965,-2.614C75.34,-3.226 74.35,-3.226 73.738,-2.614ZM48.191,39.6L54.441,39.6L54.441,44.326L46.043,45.798L41.994,41.748L43.465,33.35L48.191,33.35L48.191,39.6Z" style="fill:rgb(255,152,0);fill-rule:nonzero;"/>
    </g>
</svg>
